<?xml version="1.0" encoding="iso-8859-1"?>
<!-- Generator: Adobe Illustrator 19.0.0, SVG Export Plug-In . SVG Version: 6.00 Build 0)  -->
<svg version="1.1" id="Capa_1" xmlns="http://www.w3.org/2000/svg" xmlns:xlink="http://www.w3.org/1999/xlink" x="0px" y="0px"
	 viewBox="0 0 512 512" style="enable-background:new 0 0 512 512;" xml:space="preserve">
<path style="fill:#91562F;" d="M409.597,136.539c-1.69,0-3.336-0.495-4.736-1.434c-15.266-10.206-33.22-15.641-51.583-15.633
	H158.764c-18.38-0.017-36.343,5.419-51.626,15.633c-2.551,1.681-5.794,1.886-8.533,0.538l-34.133-17.066l7.629-15.274l29.866,14.916
	c17.135-10.351,36.778-15.821,56.797-15.812h194.514c20.044-0.017,39.705,5.453,56.857,15.812l29.823-14.916l7.629,15.274
	l-34.133,17.066C412.26,136.232,410.937,136.539,409.597,136.539z"/>
<path style="fill:#F9B44D;" d="M375.465,503.467H136.535c0-18.85,15.283-34.133,34.133-34.133h170.664
	C360.182,469.334,375.465,484.608,375.465,503.467z"/>
<path style="fill:#FA982F;" d="M341.332,469.334h-68.266c18.85,0,34.133,15.283,34.133,34.133h68.266
	C375.465,484.608,360.182,469.334,341.332,469.334z"/>
<polygon style="fill:#F9B44D;" points="307.199,469.334 204.801,469.334 238.934,435.201 273.066,435.201 "/>
<rect x="238.934" y="76.799" style="fill:#91562F;" width="34.133" height="358.394"/>
<path style="fill:#F9B44D;" d="M273.066,76.807h-34.133l-8.789-35.148c-3.575-14.276,5.103-28.748,19.387-32.324
	c2.116-0.529,4.292-0.794,6.468-0.794l0,0c14.72,0,26.649,11.929,26.649,26.649c0,2.184-0.264,4.352-0.794,6.468L273.066,76.807z"/>
<path style="fill:#FA982F;" d="M256,8.542c-2.722,0.043-5.419,0.503-8.004,1.365c13.414,4.198,21.239,18.116,17.851,31.752
	l-8.781,35.148h16l8.789-35.148c3.575-14.276-5.103-28.748-19.387-32.324C260.36,8.806,258.184,8.542,256,8.542z"/>
<rect x="213.334" y="68.265" style="fill:#F9B44D;" width="85.332" height="17.066"/>
<g>
	<path style="fill:#F0E4D6;" d="M184.953,311.538l-82.55-180.119l-82.55,180.119c-1.963,4.284-7.031,6.161-11.315,4.198l0,0l0,0
		c-4.284-1.963-6.161-7.031-4.198-11.315l0,0l90.307-197.04c1.963-4.284,7.031-6.161,11.315-4.198
		c1.86,0.853,3.345,2.338,4.198,4.198l90.307,197.04c1.971,4.284,0.085,9.344-4.198,11.306l0,0l0,0
		C191.984,317.699,186.924,315.822,184.953,311.538L184.953,311.538z"/>
	<path style="fill:#F0E4D6;" d="M492.147,311.538l-82.55-180.119l-82.55,180.119c-1.963,4.284-7.031,6.161-11.315,4.198l0,0l0,0
		c-4.284-1.963-6.161-7.031-4.198-11.315l0,0l90.307-197.04c1.963-4.284,7.031-6.161,11.315-4.198
		c1.86,0.853,3.345,2.338,4.198,4.198l90.307,197.04c1.971,4.284,0.085,9.344-4.198,11.306l0,0l0,0
		C499.179,317.699,494.119,315.822,492.147,311.538L492.147,311.538z"/>
</g>
<path style="fill:#F9B44D;" d="M315.732,315.736h187.73l0,0l0,0c0,28.279-22.92,51.199-51.199,51.199h-85.332
	C338.661,366.936,315.732,344.007,315.732,315.736L315.732,315.736L315.732,315.736z"/>
<path style="fill:#FA982F;" d="M452.263,315.736c0,28.279-22.92,51.199-51.199,51.199h51.199c28.279,0,51.199-22.92,51.199-51.199
	H452.263z"/>
<path style="fill:#F9B44D;" d="M8.537,315.736h187.73l0,0l0,0c0,28.279-22.92,51.199-51.199,51.199H59.737
	C31.466,366.936,8.537,344.007,8.537,315.736L8.537,315.736L8.537,315.736z"/>
<path style="fill:#FA982F;" d="M145.068,315.736c0,28.279-22.92,51.199-51.199,51.199h51.199c28.279,0,51.199-22.92,51.199-51.199
	H145.068z"/>
<path d="M511.219,312.178l-84.06-183.412l20.386-10.146l-7.629-15.274l-19.874,9.898l-2.688-5.862
	c-1.963-4.284-7.031-6.161-11.315-4.198c-1.86,0.853-3.345,2.338-4.198,4.198l-2.398,5.239
	c-14.464-6.716-30.216-10.206-46.165-10.214H281.6V85.34h17.066V68.274h-14.669l6.135-24.55c4.71-18.85-6.75-37.956-25.6-42.666
	s-37.956,6.75-42.666,25.6c-1.399,5.598-1.399,11.46,0,17.058l6.135,24.55h-14.669v17.066H230.4v17.066h-71.636
	c-15.966,0.009-31.735,3.507-46.207,10.24l-2.398-5.239c-1.963-4.284-7.031-6.161-11.315-4.198c-1.86,0.853-3.345,2.338-4.198,4.198
	l-2.688,5.862l-19.874-9.941l-7.629,15.291L84.841,128.8L0.781,312.178l0,0c-0.512,1.109-0.785,2.33-0.777,3.558
	c0.034,32.972,26.76,59.698,59.732,59.732h85.332c32.972-0.034,59.698-26.76,59.732-59.732c-0.017-1.229-0.316-2.432-0.853-3.533
	l0,0L119.657,128.1c12.254-5.683,25.6-8.627,39.108-8.627H230.4v312.195l-29.132,29.132h-30.6
	c-23.552,0.026-42.64,19.114-42.666,42.666c0,4.71,3.823,8.533,8.533,8.533h238.929c4.71,0,8.533-3.823,8.533-8.533
	c-0.026-23.552-19.114-42.64-42.666-42.666h-30.6L281.6,431.668V119.473h71.679c13.508,0,26.854,2.944,39.108,8.627l-84.41,184.078
	l0,0c-0.521,1.118-0.785,2.33-0.777,3.558c0.034,32.972,26.76,59.698,59.732,59.732h85.332c32.972-0.034,59.698-26.76,59.732-59.732
	c-0.017-1.229-0.316-2.432-0.853-3.533L511.219,312.178z M145.068,358.402H59.737c-20.266-0.026-37.734-14.276-41.813-34.133
	h168.957C182.802,344.118,165.343,358.377,145.068,358.402z M182.973,307.203H21.832l78.386-171.014
	c1.434,0.384,2.935,0.384,4.369,0L182.973,307.203z M241.724,24.038c6.647-7.885,18.423-8.892,26.308-2.244
	c0.811,0.683,1.562,1.434,2.244,2.244c3.447,4.395,4.668,10.137,3.302,15.547l-7.176,28.689h-20.804l-7.176-28.689
	C237.056,34.167,238.277,28.424,241.724,24.038z M247.467,102.407V85.34h17.066v17.066H247.467z M264.533,119.473v307.195h-17.066
	V119.473C247.467,119.473,264.533,119.473,264.533,119.473z M341.332,477.867c10.846,0.017,20.514,6.844,24.14,17.066H146.528
	c3.627-10.223,13.295-17.049,24.14-17.066H341.332z M286.6,460.801h-61.2l17.066-17.066h27.067L286.6,460.801z M407.396,136.215
	c1.408,0.495,2.953,0.435,4.318-0.179l78.454,171.167H329.027L407.396,136.215z M452.263,358.402h-85.332
	c-20.266-0.026-37.734-14.276-41.813-34.133h168.957C489.997,344.118,472.538,358.377,452.263,358.402z"/>
<g>
</g>
<g>
</g>
<g>
</g>
<g>
</g>
<g>
</g>
<g>
</g>
<g>
</g>
<g>
</g>
<g>
</g>
<g>
</g>
<g>
</g>
<g>
</g>
<g>
</g>
<g>
</g>
<g>
</g>
</svg>
