<?xml version="1.0" encoding="UTF-8"?>
<svg xmlns="http://www.w3.org/2000/svg" width="512" height="512" viewBox="0 0 512 512"><g><path d="M331.794,390.806a8,8,0,0,0,7.784.349l96-48a8,8,0,0,0,0-14.31l-96-48A8,8,0,0,0,328,288v96A8,8,0,0,0,331.794,390.806ZM344,300.944,414.111,336,344,371.056Z"/><path d="M496,216H272a8,8,0,0,0-8,8V448a8,8,0,0,0,8,8H412.69l45.65,45.66A8,8,0,0,0,472,496V456h24a8,8,0,0,0,8-8V224A8,8,0,0,0,496,216Zm-8,224H464a8,8,0,0,0-8,8v28.69l-34.34-34.35A8.008,8.008,0,0,0,416,440H280V232H488Z"/><path d="M240,8H16a8,8,0,0,0-8,8V240a8,8,0,0,0,8,8H40v40a8,8,0,0,0,13.66,5.66L99.31,248H240a8,8,0,0,0,8-8V16A8,8,0,0,0,240,8Zm-8,224H96a8.008,8.008,0,0,0-5.66,2.34L56,268.69V240a8,8,0,0,0-8-8H24V24H232Z"/><path d="M188.45,64.35a8.037,8.037,0,0,0-7.5-.75L102.41,96H76a20.02,20.02,0,0,0-20,20v8a20.011,20.011,0,0,0,17.4,19.81l6.76,33.76A7.99,7.99,0,0,0,88,184h24a7.992,7.992,0,0,0,7.84-9.57l-5.06-25.33,66.17,27.3A8,8,0,0,0,192,169V71A8.006,8.006,0,0,0,188.45,64.35ZM76,128a4,4,0,0,1-4-4v-8a4,4,0,0,1,4-4H96v16Zm18.56,40-4.8-24h7.68l4.8,24ZM176,157.05l-64-26.4v-21.3l64-26.4Z"/><path d="M272,200H448a8,8,0,0,0,8-8V80a8,8,0,0,0-8-8H272a8,8,0,0,0-8,8V192A8,8,0,0,0,272,200Zm8-112H440v96H280Z"/><path d="M416,128H304a8,8,0,0,0,0,16H416a8,8,0,0,0,0-16Z"/><path d="M416,104H304a8,8,0,0,0,0,16H416a8,8,0,0,0,0-16Z"/><path d="M367,152H304a8,8,0,0,0,0,16h63a8,8,0,0,0,0-16Z"/><path d="M400,152h-8a8,8,0,0,0,0,16h8a8,8,0,0,0,0-16Z"/><path d="M248,272H88a8,8,0,0,0-8,8v96a8,8,0,0,0,8,8H248a8,8,0,0,0,8-8V280A8,8,0,0,0,248,272Zm-8,96H96V288H240Z"/><path d="M112,336H224a8,8,0,0,0,0-16H112a8,8,0,0,0,0,16Z"/><path d="M112,312H224a8,8,0,0,0,0-16H112a8,8,0,0,0,0,16Z"/><path d="M112,360h63a8,8,0,0,0,0-16H112a8,8,0,0,0,0,16Z"/><path d="M208,344h-8a8,8,0,0,0,0,16h8a8,8,0,0,0,0-16Z"/></g></svg>
